<svg width="168" height="33" viewBox="0 0 168 33" fill="none" xmlns="http://www.w3.org/2000/svg">
<path d="M51.0938 7.45414C53.0377 5.5201 55.4758 4.56946 58.474 4.56946C62.4607 4.56946 65.3601 5.8479 67.2052 8.47034C68.2265 9.91268 68.7866 11.3878 68.8525 12.8629H63.9104C63.5809 11.7156 63.1526 10.8633 62.6584 10.306C61.7688 9.28985 60.418 8.76536 58.6388 8.76536C56.8596 8.76536 55.4429 9.48654 54.3886 10.9289C53.3342 12.3712 52.84 14.4364 52.84 17.0588C52.84 19.714 53.3672 21.7137 54.4874 23.0249C55.5747 24.3361 56.9914 24.9917 58.6717 24.9917C60.418 24.9917 61.7359 24.4344 62.6584 23.2871C63.1526 22.6971 63.548 21.7792 63.9104 20.5663H68.8196C68.3583 23.1232 67.271 25.2212 65.5248 26.8274C63.7457 28.4664 61.4723 29.2532 58.7376 29.2532C55.3111 29.2532 52.6423 28.1714 50.6984 25.9751C48.7545 23.8116 47.7661 20.7958 47.7661 16.9933C47.7661 12.8957 48.8863 9.68322 51.0938 7.45414Z" fill="url(#paint0_linear_368_5800)"/>
<path d="M51.0938 7.45414C53.0377 5.5201 55.4758 4.56946 58.474 4.56946C62.4607 4.56946 65.3601 5.8479 67.2052 8.47034C68.2265 9.91268 68.7866 11.3878 68.8525 12.8629H63.9104C63.5809 11.7156 63.1526 10.8633 62.6584 10.306C61.7688 9.28985 60.418 8.76536 58.6388 8.76536C56.8596 8.76536 55.4429 9.48654 54.3886 10.9289C53.3342 12.3712 52.84 14.4364 52.84 17.0588C52.84 19.714 53.3672 21.7137 54.4874 23.0249C55.5747 24.3361 56.9914 24.9917 58.6717 24.9917C60.418 24.9917 61.7359 24.4344 62.6584 23.2871C63.1526 22.6971 63.548 21.7792 63.9104 20.5663H68.8196C68.3583 23.1232 67.271 25.2212 65.5248 26.8274C63.7457 28.4664 61.4723 29.2532 58.7376 29.2532C55.3111 29.2532 52.6423 28.1714 50.6984 25.9751C48.7545 23.8116 47.7661 20.7958 47.7661 16.9933C47.7661 12.8957 48.8863 9.68322 51.0938 7.45414Z" fill="#B37EFF" fill-opacity="0.16"/>
<path d="M76.7823 21.6809C76.7823 22.6643 76.8812 23.4182 77.1118 23.91C77.5401 24.795 78.3638 25.2212 79.5829 25.2212C81.1314 25.2212 82.2187 24.5983 82.8117 23.3527C83.1083 22.6643 83.2401 21.7792 83.2401 20.6319V11.1583H87.9186V28.5976H83.4377V26.139L83.1083 26.5979C82.9435 26.893 82.7458 27.1224 82.5152 27.3191C81.7904 27.9419 81.0985 28.4009 80.4395 28.6303C79.7476 28.8598 78.9898 28.9909 78.0673 28.9909C75.4974 28.9909 73.7182 28.0403 72.8286 26.2046C72.3344 25.1884 72.0708 23.6805 72.0708 21.6809V11.1583H76.7823V21.6809Z" fill="url(#paint1_linear_368_5800)"/>
<path d="M76.7823 21.6809C76.7823 22.6643 76.8812 23.4182 77.1118 23.91C77.5401 24.795 78.3638 25.2212 79.5829 25.2212C81.1314 25.2212 82.2187 24.5983 82.8117 23.3527C83.1083 22.6643 83.2401 21.7792 83.2401 20.6319V11.1583H87.9186V28.5976H83.4377V26.139L83.1083 26.5979C82.9435 26.893 82.7458 27.1224 82.5152 27.3191C81.7904 27.9419 81.0985 28.4009 80.4395 28.6303C79.7476 28.8598 78.9898 28.9909 78.0673 28.9909C75.4974 28.9909 73.7182 28.0403 72.8286 26.2046C72.3344 25.1884 72.0708 23.6805 72.0708 21.6809V11.1583H76.7823V21.6809Z" fill="#B37EFF" fill-opacity="0.16"/>
<path d="M92.9704 11.3222V6.43795H97.5171V11.3222H100.384V14.5675H97.5171V23.7788C97.5171 24.5 97.616 24.9261 97.7807 25.1228C97.9784 25.2867 98.5385 25.3851 99.4611 25.3851C99.6258 25.3851 99.7576 25.3851 99.9223 25.3523H100.384V28.7615L98.209 28.827C96.0345 28.9254 94.5519 28.532 93.7611 27.7125C93.234 27.188 92.9704 26.4013 92.9704 25.2867V14.5675H90.5323V11.3222H92.9704Z" fill="url(#paint2_linear_368_5800)"/>
<path d="M92.9704 11.3222V6.43795H97.5171V11.3222H100.384V14.5675H97.5171V23.7788C97.5171 24.5 97.616 24.9261 97.7807 25.1228C97.9784 25.2867 98.5385 25.3851 99.4611 25.3851C99.6258 25.3851 99.7576 25.3851 99.9223 25.3523H100.384V28.7615L98.209 28.827C96.0345 28.9254 94.5519 28.532 93.7611 27.7125C93.234 27.188 92.9704 26.4013 92.9704 25.2867V14.5675H90.5323V11.3222H92.9704Z" fill="#B37EFF" fill-opacity="0.16"/>
<path d="M108.654 24.3689H120.383V28.5976H103.679V4.99561H108.654V24.3689Z" fill="url(#paint3_linear_368_5800)"/>
<path d="M108.654 24.3689H120.383V28.5976H103.679V4.99561H108.654V24.3689Z" fill="#B37EFF" fill-opacity="0.16"/>
<path d="M123.524 4.86449H128.169V9.06039H123.524V4.86449ZM128.169 28.5976H123.524V11.1583H128.169V28.5976Z" fill="url(#paint4_linear_368_5800)"/>
<path d="M123.524 4.86449H128.169V9.06039H123.524V4.86449ZM128.169 28.5976H123.524V11.1583H128.169V28.5976Z" fill="#B37EFF" fill-opacity="0.16"/>
<path d="M146.795 12.1418C147.949 13.0924 148.509 14.6659 148.509 16.8621V28.5976H143.83V17.9767C143.83 17.0588 143.698 16.3704 143.468 15.8787C143.006 14.9609 142.15 14.5347 140.865 14.5347C139.316 14.5347 138.262 15.1903 137.669 16.5016C137.372 17.1899 137.241 18.075 137.241 19.1568V28.5976H132.661V11.1911H137.076V13.7152C137.669 12.8301 138.229 12.2073 138.756 11.7812C139.712 11.0928 140.898 10.7322 142.347 10.7322C144.16 10.7322 145.642 11.1911 146.795 12.1418Z" fill="url(#paint5_linear_368_5800)"/>
<path d="M146.795 12.1418C147.949 13.0924 148.509 14.6659 148.509 16.8621V28.5976H143.83V17.9767C143.83 17.0588 143.698 16.3704 143.468 15.8787C143.006 14.9609 142.15 14.5347 140.865 14.5347C139.316 14.5347 138.262 15.1903 137.669 16.5016C137.372 17.1899 137.241 18.075 137.241 19.1568V28.5976H132.661V11.1911H137.076V13.7152C137.669 12.8301 138.229 12.2073 138.756 11.7812C139.712 11.0928 140.898 10.7322 142.347 10.7322C144.16 10.7322 145.642 11.1911 146.795 12.1418Z" fill="#B37EFF" fill-opacity="0.16"/>
<path d="M163.642 11.5189C164.796 12.0434 165.751 12.8957 166.509 14.0758C167.201 15.1248 167.662 16.3049 167.86 17.6817C167.958 18.4684 168.024 19.6485 167.991 21.1236H155.999C156.064 22.8938 156.625 24.1066 157.646 24.8278C158.272 25.254 159.063 25.4834 159.952 25.4834C160.908 25.4834 161.633 25.1884 162.259 24.6639C162.555 24.4017 162.852 23.9755 163.082 23.4838H167.794C167.662 24.5 167.102 25.549 166.146 26.6307C164.664 28.3353 162.555 29.1876 159.853 29.1876C157.613 29.1876 155.636 28.4664 153.956 27.0241C152.243 25.6145 151.386 23.2543 151.386 20.0419C151.386 17.026 152.144 14.7314 153.692 13.0924C155.241 11.4861 157.218 10.6994 159.689 10.6994C161.138 10.6994 162.456 10.9617 163.642 11.5189ZM157.218 15.4526C156.625 16.1082 156.262 16.9933 156.13 18.1406H163.247C163.148 16.9277 162.819 16.0099 162.16 15.387C161.501 14.7642 160.677 14.4364 159.689 14.4364C158.634 14.4364 157.811 14.797 157.218 15.4526Z" fill="url(#paint6_linear_368_5800)"/>
<path d="M163.642 11.5189C164.796 12.0434 165.751 12.8957 166.509 14.0758C167.201 15.1248 167.662 16.3049 167.86 17.6817C167.958 18.4684 168.024 19.6485 167.991 21.1236H155.999C156.064 22.8938 156.625 24.1066 157.646 24.8278C158.272 25.254 159.063 25.4834 159.952 25.4834C160.908 25.4834 161.633 25.1884 162.259 24.6639C162.555 24.4017 162.852 23.9755 163.082 23.4838H167.794C167.662 24.5 167.102 25.549 166.146 26.6307C164.664 28.3353 162.555 29.1876 159.853 29.1876C157.613 29.1876 155.636 28.4664 153.956 27.0241C152.243 25.6145 151.386 23.2543 151.386 20.0419C151.386 17.026 152.144 14.7314 153.692 13.0924C155.241 11.4861 157.218 10.6994 159.689 10.6994C161.138 10.6994 162.456 10.9617 163.642 11.5189ZM157.218 15.4526C156.625 16.1082 156.262 16.9933 156.13 18.1406H163.247C163.148 16.9277 162.819 16.0099 162.16 15.387C161.501 14.7642 160.677 14.4364 159.689 14.4364C158.634 14.4364 157.811 14.797 157.218 15.4526Z" fill="#B37EFF" fill-opacity="0.16"/>
<path d="M30.3425 0.5H1.82055C0.815089 0.5 0 1.31096 0 2.31132V30.6887C0 31.689 0.815089 32.5 1.82055 32.5H30.3425C31.348 32.5 32.1631 31.689 32.1631 30.6887V2.31132C32.1631 1.31096 31.348 0.5 30.3425 0.5Z" fill="#0C0C0B"/>
<path fill-rule="evenodd" clip-rule="evenodd" d="M3.39836 3.63962H13.6784L13.5061 4.47524L12.989 5.54996L12.5303 6.02694H6.15468V12.8327L5.1206 13.7878C5.1206 13.7878 4.6327 14.2962 4.20183 14.5643C3.77097 14.8336 3.39836 14.8626 3.39836 14.8626V3.63962Z" fill="white"/>
<path fill-rule="evenodd" clip-rule="evenodd" d="M28.6591 29.2758H18.3779L18.5502 28.4402L19.0672 27.3655L19.5272 26.8873H25.9028V20.0816L26.9357 19.1264C26.9357 19.1264 27.4248 18.6192 27.8544 18.35C28.2853 18.0819 28.6591 18.0517 28.6591 18.0517V29.2758Z" fill="white"/>
<defs>
<linearGradient id="paint0_linear_368_5800" x1="158.369" y1="36.7667" x2="4.60355" y2="-0.822557" gradientUnits="userSpaceOnUse">
<stop stop-color="#9E5AFF"/>
<stop offset="1" stop-color="#9852FC"/>
</linearGradient>
<linearGradient id="paint1_linear_368_5800" x1="158.369" y1="36.7667" x2="4.60355" y2="-0.822557" gradientUnits="userSpaceOnUse">
<stop stop-color="#9E5AFF"/>
<stop offset="1" stop-color="#9852FC"/>
</linearGradient>
<linearGradient id="paint2_linear_368_5800" x1="158.369" y1="36.7667" x2="4.60355" y2="-0.822557" gradientUnits="userSpaceOnUse">
<stop stop-color="#9E5AFF"/>
<stop offset="1" stop-color="#9852FC"/>
</linearGradient>
<linearGradient id="paint3_linear_368_5800" x1="158.369" y1="36.7667" x2="4.60355" y2="-0.822557" gradientUnits="userSpaceOnUse">
<stop stop-color="#9E5AFF"/>
<stop offset="1" stop-color="#9852FC"/>
</linearGradient>
<linearGradient id="paint4_linear_368_5800" x1="158.369" y1="36.7667" x2="4.60355" y2="-0.822557" gradientUnits="userSpaceOnUse">
<stop stop-color="#9E5AFF"/>
<stop offset="1" stop-color="#9852FC"/>
</linearGradient>
<linearGradient id="paint5_linear_368_5800" x1="158.369" y1="36.7667" x2="4.60355" y2="-0.822557" gradientUnits="userSpaceOnUse">
<stop stop-color="#9E5AFF"/>
<stop offset="1" stop-color="#9852FC"/>
</linearGradient>
<linearGradient id="paint6_linear_368_5800" x1="158.369" y1="36.7667" x2="4.60355" y2="-0.822557" gradientUnits="userSpaceOnUse">
<stop stop-color="#9E5AFF"/>
<stop offset="1" stop-color="#9852FC"/>
</linearGradient>
</defs>
</svg>
